<svg width="1270" height="640" viewBox="0 0 1270 640" fill="none" xmlns="http://www.w3.org/2000/svg">
<g clip-path="url(#clip0_330_336)">
<path d="M1300.11 0H1224.14C1271.7 40.3288 1308.65 84.0536 1318.26 138.027C1330.22 205.221 1309.41 267.207 1239.59 312.962C1115.62 394.176 1037.22 504.153 898.437 575.069C794.566 628.148 682.796 614.359 577.629 580.23C452.655 539.671 334.215 547.14 214.201 585.85C206.717 588.267 198.024 588.835 189.901 590.261C192.079 584.387 193.098 578.139 196.607 572.677C238.38 507.694 402.275 482.218 527.508 519.791C652.949 557.425 778.51 606.479 910.656 530.221C1000.8 478.205 1053.38 405.452 1123.41 342.318C1176.64 294.327 1250.53 253.865 1254.43 187.299C1259.62 98.834 1191.78 41.344 1091.04 0H585.337C633.108 11.5415 680.705 23.506 729.236 33.1622C821.164 51.4715 912.54 22.9259 1004.35 28.6906C1094.05 34.3224 1160.36 67.7263 1203.47 122.014C1229.93 155.357 1229.1 189.958 1196.98 222.89C1184.39 235.822 1167.95 243.786 1146.54 241.538C1120.92 238.843 1110.43 223.893 1104.83 207.977C1066.88 100.115 1022.56 77.3825 869.522 107.052C769.575 126.425 695.499 89.9513 614.96 67.0133C439.918 17.1733 266.983 95.2326 266.188 226.673C265.998 258.385 263.06 290.169 258.809 321.76C255.853 343.768 249.718 369.05 206.527 364.784C167.053 360.893 152.483 335.369 153.71 312.322C160.399 184.882 195.362 36.7999 409.257 0H250.374C139.953 97.6617 92.7011 209.741 110.036 333.725C116.517 380.072 153.002 423.435 231.259 415.386C315.998 406.684 304.799 350.076 313.769 307.524C330.015 230.468 314.304 143.381 438.933 100.188C521.252 71.6541 599.82 91.2565 666.637 127.065C724.258 157.943 779.685 169.449 854.365 163.962C1019.38 151.84 1078.54 209.185 1038.53 330.607C1002 441.478 873.307 536.844 759.758 535.139C674.984 533.871 612.765 492.164 538.777 471.474C394.532 431.121 278.321 474.809 168.937 535.55C2.77747 627.834 -175.186 702.147 -392.849 715.417C-413.053 716.649 -437.076 714.559 -441.691 698.908C-446.841 681.409 -421.85 676.538 -403.409 671.982C-301.905 646.881 -195.563 631.182 -100.748 593.246C41.2496 536.433 57.1154 449.829 33.1784 346.209C4.93787 223.99 44.5506 107.741 132.349 0H48.8195C-18.4634 117.445 -8.54291 241.937 -16.9425 364.881C-21.8336 436.463 -43.9386 505.216 -118.342 558.621C-272.213 669.057 -503.512 664.417 -674.441 550.814C-697.687 535.357 -728.261 504.165 -762.378 524.13C-796.875 544.324 -762.447 570.03 -741.448 590.321C-727.103 604.183 -712.948 618.311 -696.356 630.807C-608.317 697.12 -529.506 774.828 -376.205 764.447C-283.153 758.151 -210.513 717.858 -130.267 690.618C43.4445 631.641 218.712 707.718 218.712 843.123C218.712 1010.58 -26.6037 1128.66 -273.89 1092.49C-445.009 1067.46 -596.581 1006.07 -766.439 981.198C-862.049 967.191 -977.171 1012.89 -1000.99 1079.73C-1020.93 1135.71 -965.229 1183.08 -862.74 1202.43C-717.39 1229.87 -581.873 1268.42 -486.16 1357.52C-385.521 1451.21 -349.555 1454.42 -207.298 1385.18C-89.1165 1327.65 32.3488 1301.5 174.83 1337.85C305.144 1371.1 359.258 1346.67 360.502 1249.83C362.092 1125.55 443.996 1045.72 606.232 1001.69C745.776 963.819 818.848 871.717 783.816 772.025C765.133 718.849 704.141 698.026 632.969 709.374C569.454 719.502 592.734 759.25 601.652 788.376C625.849 867.414 617.38 938.029 513.595 989.319C447.937 1021.78 385.822 1056.78 354.678 1111.53C330.948 1153.24 305.663 1194.77 260.641 1227.7C161.263 1300.4 26.991 1288.17 -97.7407 1296.95C-363.554 1315.67 -583.273 1227.69 -803.632 1143.29C-846.563 1126.85 -897.842 1103.31 -863.483 1063.66C-830.888 1026.06 -774.078 1038.66 -729.436 1057.41C-580.612 1119.88 -436.039 1185.67 -259.925 1209.73C-109.476 1230.29 42.8742 1204.33 112.698 1137.69C247.056 1009.47 281.916 864.381 274.657 709.918C270.198 615.157 348.093 572.387 476.644 602.527C682.503 650.796 870.231 647.461 1025.83 527.079C1106.39 464.754 1169.35 391.142 1267.84 340.36C1353.91 295.995 1394.01 239.338 1377.26 163.334C1364.56 105.529 1330.31 53.3448 1300.11 0Z" fill="#00BF63" fill-opacity="0.09"/>
</g>
<defs>
<clipPath id="clip0_330_336">
<rect width="1270" height="640" fill="white"/>
</clipPath>
</defs>
</svg>
